<svg width="136" height="36" viewBox="0 0 136 36" fill="none" xmlns="http://www.w3.org/2000/svg">
<g clip-path="url(#clip0_4266_5784)">
<path fill-rule="evenodd" clip-rule="evenodd" d="M15.1279 1.78701C30.0805 3.37465 30.0805 12.785 29.2145 17.5479C28.7238 20.3479 26.1836 34.319 9.23919 34.3479C2.54227 34.3479 1.53196 33.5685 1.87835 32.0675C2.04497 31.3825 4.36067 22.7305 6.03076 16.4906C6.9647 13.0012 7.69675 10.2661 7.73816 10.1004C8.24227 8.084 10.2096 8.38431 10.6141 8.44605C10.6497 8.45148 10.6732 8.45507 10.6825 8.45507C10.7402 8.48394 10.7691 8.54167 10.7691 8.5994C10.6185 9.88984 8.7854 19.8015 7.84863 24.8667C7.52811 26.5997 7.31253 27.7653 7.30517 27.8242C7.04537 29.5273 7.30517 29.7005 9.41239 29.7005C19.833 29.7005 23.6145 22.5128 24.6537 16.7396C26.4145 6.75197 16.6578 3.77877 3.00413 4.99115C2.99065 4.99115 2.96655 4.99193 2.93384 4.993L2.93375 4.993L2.93371 4.99301C2.68615 5.00109 1.94657 5.02526 1.58969 4.84682C1.0701 4.61589 0.637114 3.98083 0.52165 3.63444C0.492783 3.51898 0.492783 3.37465 0.52165 3.31692C0.550516 3.25918 0.579382 3.20145 0.637114 3.20145C5.05362 2.42207 11.1732 1.38289 15.1279 1.78701ZM62.8434 27.9252C62.8506 27.9324 62.8579 27.9396 62.8723 27.9396C62.9589 27.9974 62.9012 28.1417 62.8146 28.2283C61.862 31.5479 58.8888 33.8283 55.4537 33.9149C52.5671 34.0593 49.6516 32.4139 48.4104 29.9025C47.9197 28.95 47.631 27.9397 47.5156 26.6984C47.0826 26.9005 46.6207 27.0737 46.1589 27.218C45.5527 28.8922 44.5135 30.4221 43.0991 31.4902C40.0393 33.7417 35.9114 34.4345 32.2166 32.385C27.6846 29.2386 28.233 22.917 31.4083 19.1932C34.5836 15.4695 40.4145 14.8633 43.33 16.6819C45.3217 17.952 46.3609 20.1747 46.6496 22.4551C47.0826 22.1664 47.4578 21.7912 47.8908 21.2716C48.2949 20.7809 49.1032 19.5974 49.1032 19.5974C49.5939 18.8757 50.1424 18.2118 50.8063 17.6345C52.1341 16.451 53.8372 15.8736 55.5692 15.8736C57.0702 15.8736 58.5712 16.3066 59.8991 17.2015C60.3321 17.4613 60.4475 17.6345 60.3032 17.8654C60.13 18.2118 59.8991 18.5293 59.6682 18.818C59.2063 19.3953 58.7156 19.1932 58.3981 19.0489C58.3403 19.02 58.2826 18.9912 58.2537 18.9912C56.7816 18.4716 55.5692 18.5871 54.3279 19.3376C51.6434 20.9829 51.2104 24.1582 51.73 26.6118C52.2496 29.0943 53.6352 29.9603 54.7032 30.2201C56.695 30.7108 59.3218 29.6427 60.996 27.6799C61.5156 27.0737 62.2661 27.4778 62.8146 27.9108C62.829 27.9108 62.8362 27.918 62.8434 27.9252ZM34.7568 28.1994C36.864 29.7005 40.2413 28.9211 41.8867 26.4963C43.0413 24.7933 44.0805 21.9644 42.3197 19.7994C40.299 17.3169 36.6619 18.1541 34.5836 20.4633C32.5341 22.7726 32.5052 26.5829 34.7568 28.1994ZM89.4579 16.653C86.5424 14.8345 80.7115 15.4407 77.5362 19.1644C75.5733 21.4448 74.6207 24.7355 75.2269 27.651C74.13 28.6613 72.8311 29.3541 71.2146 29.0077C70.3486 28.8345 69.3671 27.853 69.6847 26.2943C69.7424 26.0056 70.9836 19.3087 72.1671 12.8138C72.2393 12.8138 72.3187 12.8066 72.3981 12.7994L72.3981 12.7994C72.4775 12.7922 72.5568 12.785 72.629 12.785C75.429 12.6118 81.5775 12.1499 82.4146 11.6881C83.396 11.1396 83.3383 10.2736 83.2517 9.92724C83.2228 9.84064 83.1651 9.78291 83.0785 9.78291C82.3569 9.75404 78.7197 9.60971 75.9775 9.52311C75.1981 9.49425 74.0434 9.49425 72.7445 9.49425C73.3218 6.31898 73.8125 3.49011 74.0434 1.93134C74.0723 1.87361 74.0146 1.78701 73.9568 1.78701C73.7836 1.75815 73.6104 1.72928 73.4084 1.72928C72.4558 1.72928 71.4166 2.24887 71.128 3.20145C71.128 3.20145 70.3486 5.91486 69.3671 9.49425C67.7693 9.49425 66.2766 9.5074 65.3066 9.51595C64.8396 9.52007 64.4938 9.52311 64.3156 9.52311C64.229 9.52311 64.1712 9.58085 64.1424 9.66744C64.0269 10.2159 63.7383 12.1499 64.8929 12.6984C65.6145 13.0448 66.9135 13.1025 68.3857 13.0448C66.8558 18.6448 65.2393 24.8798 65.0084 26.6984C64.7486 28.719 65.4125 30.7397 66.7692 31.9809C68.9053 33.9726 72.3981 34.3768 74.8517 32.8757C75.6599 32.385 76.3816 31.8366 77.0166 31.2592C77.3919 31.6345 77.796 32.0098 78.2579 32.3273C81.9527 34.3768 86.0806 33.684 89.1404 31.4324C91.1321 29.9314 92.4022 27.4489 92.6909 25.0242C93.1816 21.9355 92.2002 18.4139 89.4579 16.653ZM87.9569 26.4963C86.3115 28.9211 82.9342 29.7005 80.8269 28.1994C78.5754 26.5829 78.6043 22.7726 80.6538 20.4633C82.7321 18.1541 86.3692 17.3169 88.3899 19.7994C90.1507 21.9644 89.1115 24.7932 87.9569 26.4963ZM110.992 8.45507L110.819 8.71486C110.184 9.84064 110.039 11.2262 111.079 11.9767C112.002 12.5829 113.157 12.2943 113.879 11.7458C114.369 11.3705 114.687 10.7644 114.773 10.1004C114.86 9.40765 114.716 8.4262 113.936 7.93548C113.619 7.76228 113.272 7.67569 112.926 7.67569C112.378 7.67569 111.8 7.84888 111.338 8.13754C111.223 8.22414 111.107 8.33961 110.992 8.45507ZM131.862 31.4324C133.883 29.9314 135.124 27.4489 135.413 25.0242C135.817 21.9355 134.835 18.4139 132.122 16.653C130.044 15.3541 126.464 15.2963 123.433 16.7396C123.914 14.1245 124.79 8.18893 125.312 4.64697C125.511 3.30179 125.658 2.30186 125.714 1.96021V1.96016C125.714 1.90246 125.714 1.8736 125.685 1.84475C125.656 1.81588 125.627 1.78701 125.598 1.78701C125.425 1.75815 125.252 1.72928 125.079 1.72928C124.126 1.72928 123.087 2.24887 122.798 3.20145C122.798 3.20145 117.256 25.6304 117.054 26.6984C115.755 28.6902 114.196 29.4695 112.522 28.95C111.16 28.5244 111.22 27.4577 111.25 26.9279L111.252 26.9005C111.283 26.4418 111.74 23.7389 112.188 21.08C112.559 18.886 112.924 16.7219 113.041 15.8736C113.07 15.7582 112.984 15.6427 112.868 15.6138C112.58 15.5561 112.262 15.5272 111.945 15.5272C110.934 15.5272 109.866 15.9025 109.231 17.4613C109.202 17.519 107.384 23.8984 107.037 25.284C107.023 25.3706 107.001 25.4571 106.98 25.5437C106.958 25.6303 106.936 25.7169 106.922 25.8036C105.565 27.853 103.487 29.6139 100.485 28.9788C99.6188 28.7768 98.6662 28.1417 98.9548 26.2654C99.0414 25.7747 101.784 9.86951 102.592 4.78908C102.592 4.70248 102.563 4.67362 102.505 4.64475C102.332 4.61589 102.13 4.58702 101.957 4.58702C101.004 4.58702 99.9652 5.10661 99.6765 6.05919C99.6765 6.05919 95.2889 22.1664 94.3363 26.6984C93.9033 28.719 94.1919 30.6531 95.9816 32.2407C97.627 33.7129 100.802 34.1747 103.458 33.0778C104.988 32.4427 106.258 31.3747 107.153 30.4799C108.307 32.7891 111.079 34.2902 113.619 33.684C115.582 33.2221 117.083 31.8077 118.064 30.5953C118.439 31.1438 118.901 31.6634 119.392 32.0386C121.644 33.8572 124.877 34.1747 127.763 33.3087C129.235 32.9912 130.65 32.3273 131.862 31.4324ZM123.376 20.8097C125.425 18.5005 129.091 17.6345 131.112 20.1458C132.872 22.3108 131.804 25.1685 130.65 26.8427C129.004 29.2675 125.252 30.1623 123.145 28.6613C120.864 27.0448 121.326 23.119 123.376 20.8097Z" fill="#107ACA"/>
</g>
<defs>
<clipPath id="clip0_4266_5784">
<rect width="135" height="34.322" fill="white" transform="translate(0.5 0.838867)"/>
</clipPath>
</defs>
</svg>
